<svg xmlns="http://www.w3.org/2000/svg" viewBox="-4 -4 257 257"><path fill="#daa520" d="M252.7 -3.9c.5 10.7 -1 21.3 -2.4 31.9 -12 75.8 -12 75.8 -26.6 88.1 -4.9 2.8 -20.1 10.4 -43.9 22l34 1c-1.4 5.7 -6.1 13.3 -10 19 -16 15.1 -47.5 21.1 -69 28.1l41 1c-6.1 12.2 -27.2 20.5 -39.6 24.9 -47.1 15.6 -78.7 -2.3 -100.8 18.3 -5.4 5.4 -10.4 11.1 -15.2 17.1 -2.5 3 -4.1 4.6 -8.1 5.1 -8.3 .2 -8.3 .2 -11.1 -1.5 -1.5 -1.4 -1.5 -1.4 -3.3 -4l-1 -1c-.9 -5 -1.3 -10 1.6 -14.4 65 -63.1 41.2 -39.3 117.2 -115.3 5.4 -6.7 15.1 -12.8 15.2 -22.3 -4.2 -7.8 -11.4 -3 -15.3 .5 -55.5 54.6 -84.2 86.5 -86.7 86.5 -1.8 -43.8 7.7 -83.4 37.8 -116.1 10.4 -10.7 22.5 -19.2 35.2 -26.9 17.5 -10.5 78.6 -43.6 151 -42"/></svg>
