<svg xmlns="http://www.w3.org/2000/svg" viewBox="0 0 232 40"><path d="M88.85 25.16a6.173 6.173 0 1 0 6.858-10.27 6.173 6.173 0 0 0-6.858 10.27m-9.3-20.32A19.28 19.28 0 0 1 92.28.342l.077-.022c11.42 0 19.68 8.266 19.68 19.68a19.35 19.35 0 0 1-12.1 18.27 19.3 19.3 0 0 1-7.584 1.403c-10.18 0-17.85-6.59-19.39-16.11v15.43h-9.104a7.4 7.4 0 0 1-6.712-3.307l-8.42-11.47v14.87h-9.92c-2.93 0-4.187-1.268-4.187-4.188V15.28h-9.027v23.81H14.86c-2.932 0-4.188-1.268-4.188-4.188V15.28H4.133C1.245 15.28 0 14.03 0 11.14V1.036h43.63a7.36 7.36 0 0 1 6.701 3.307l8.453 11.47V.981h9.92c2.931 0 4.188 1.257 4.188 4.188V16.6a19.28 19.28 0 0 1 6.653-11.75m141.5.324v11.98h2.634v-6.91c0-2.072 1.212-3.405 2.766-3.405 1.312 0 2.028.892 2.028 2.612v7.648h2.634V9.38c0-3.096-1.279-4.64-3.89-4.64a4.04 4.04 0 0 0-3.704 2.381V5.17zm-8.189 1.632c1.752 0 2.865 1.554 2.865 4.408s-1.102 4.343-2.865 4.343-2.844-1.521-2.844-4.343 1.103-4.408 2.844-4.408m0-1.962c-3.384 0-5.709 2.468-5.709 6.315 0 3.846 2.303 6.315 5.709 6.315s5.731-2.469 5.731-6.315-2.326-6.315-5.731-6.315m-10.87 12.31h2.722V5.17h-2.722zm0-13.94h2.722V1.003h-2.722zm-5.852-1.345-2.513.21-.1 3.096h-2.071v1.84h2.005v5.996c0 3.119.904 4.463 3.77 4.463a9 9 0 0 0 1.917-.231v-2.15a5.3 5.3 0 0 1-1.333.166c-1.422 0-1.675-.772-1.675-2.513V6.933h2.678V5.169h-2.678zm-9.292 9.313v.86a3.3 3.3 0 0 1-.184 1.284 3.3 3.3 0 0 1-2.967 2.198c-1.323 0-2.138-.727-2.138-1.796 0-1.686 1.553-2.546 4.684-2.546zm-7.813-2.91 2.524.309c.253-1.234 1.179-1.874 2.788-1.874s2.501.728 2.501 2.205v.672h-.253c-5.301 0-7.88 1.389-7.88 4.287 0 2.094 1.609 3.582 4.122 3.582a4.41 4.41 0 0 0 4.056-2.37 10 10 0 0 0 .253 2.073h2.656a6.5 6.5 0 0 1-.341-2.381v-5.23c0-3.307-1.378-4.706-4.85-4.706-3.174 0-5.058 1.168-5.598 3.427zm-8.366 8.884h2.447l4.243-11.98h-2.204l-2.987 9.114-2.954-9.115h-2.733zM159.6 6.8c1.752 0 2.865 1.555 2.865 4.409s-1.102 4.343-2.865 4.343-2.844-1.521-2.844-4.343 1.103-4.408 2.844-4.408m0-1.961c-3.384 0-5.709 2.468-5.709 6.315 0 3.846 2.303 6.315 5.709 6.315s5.731-2.469 5.731-6.315-2.326-6.315-5.731-6.315m-18.21.33v11.98h2.634v-6.91c0-2.072 1.212-3.405 2.766-3.405 1.312 0 2.028.892 2.028 2.612v7.648h2.634V9.38c0-3.096-1.278-4.64-3.89-4.64a4.03 4.03 0 0 0-3.703 2.381V5.17zm-13.23 0v11.98h2.634v-6.91c0-2.072 1.213-3.405 2.778-3.405 1.3 0 2.028.892 2.028 2.612v7.648h2.634V9.38c0-3.096-1.29-4.64-3.891-4.64a4.04 4.04 0 0 0-3.703 2.381V5.17zm-6.954 11.98h2.722V5.17h-2.744zm0-13.94h2.722V1.003h-2.744zm56.98 28.58c.165-2.006 1.256-3.13 2.81-3.13 1.786 0 2.8 1.102 2.877 3.13zm0 1.675h8.574v-.419c0-3.901-2.204-6.293-5.709-6.293s-5.731 2.535-5.731 6.337c0 3.803 2.315 6.293 5.808 6.293a5.436 5.436 0 0 0 5.511-3.78l-2.59-.275a2.834 2.834 0 0 1-2.788 2.028c-1.896 0-3.086-1.378-3.086-3.825zm-2.767-10.62a10.5 10.5 0 0 0-2.314-.21c-2.623 0-3.835 1.345-3.835 4.21v.243h-1.984v1.83h1.984V39.05h2.623V28.91h2.865v-1.83h-2.909v-.33c0-1.466.584-2.127 1.983-2.127q.801.022 1.587.165zM162.3 39.05h2.722V27.08H162.3zm0-13.93h2.722v-2.204H162.3zm-6.613 13.93h2.723V22.88h-2.723zM148.7 26.77h-.628c-1.675 0-2.778.948-3.384 2.91V27.1h-2.447v11.97h2.679v-5.94c0-2.36 1.267-3.781 3.196-3.781a4 4 0 0 1 .584 0zm-14.4 1.93c1.753 0 2.877 1.565 2.877 4.408s-1.102 4.332-2.877 4.332-2.843-1.51-2.843-4.332 1.102-4.408 2.843-4.408m0-1.951c-3.373 0-5.709 2.469-5.709 6.315s2.315 6.315 5.709 6.315c3.395 0 5.731-2.468 5.731-6.315 0-3.846-2.325-6.315-5.731-6.315m-6.172-3.912a10.5 10.5 0 0 0-2.314-.21c-2.634 0-3.847 1.345-3.847 4.21v.243h-1.895v1.83h1.973v10.14h2.633V28.91h2.866v-1.83h-2.91v-.33c0-1.466.585-2.127 1.984-2.127q.8.022 1.588.165z"/></svg>
